<?xml version="1.0" encoding="UTF-8"?>
<svg id="Layer_2" xmlns="http://www.w3.org/2000/svg" viewBox="0 0 144 144">
    <defs>
        <style>
            @media (prefers-color-scheme: dark) {
                .icon { fill: #e1ddd2; }
            }
            @media (prefers-color-scheme: light) {
                .icon { fill: #35301b; }
            }
        </style>
    </defs>
    <g id="Layer_1-2">
        <path id="SarahFoulkes_WebFavicon_Olive" class="icon" d="M112.29,121.88c-.46-1.44-.94-2.88-1.43-4.31-1-2.79-1.3-3.64-2.47-6.35-.03-.06-.06-.11-.1-.17-.53-.92-1.37-1.61-2.35-2.01-.68-.28-3.93-2.77-4.99-3.34-2.2-.87-4.45-1.55-6.69-2.29-1.89-.61-3.77-1.27-5.65-1.95-.08-.03-.12-.05-.12-.06-.03,0-.07-.01-.1-.02-.21-.09-.4-.2-.61-.3-.12-.06-.24-.12-.35-.17,0,0-.01,0-.02,0,0,0,0,0,0,0-.61-.3-1.21-.6-1.77-.99-.56-.4-1.06-.9-1.58-1.36-3.4-3.52-3.34-8.72,1.09-11.14,3.08-1.59,6.62-.65,9.72.47.77.29,1.53.61,2.28.96-2.11-3.46-4.19-6.44-7.06-10.18-.03-.04-.07-.09-.1-.13-.6-.78-1.65-1.03-2.57-.68-.17.06-.34.11-.52.13,0,0,0,0,0,0-.15.04-.29.07-.45.08-.2.03-.4.07-.61.09,0,0,0,0,0,0-.14.02-.28.03-.42.03-.04,0-.08,0-.12,0,0,0-.01,0-.02,0,0,0,0,0,0,0-.9,0-1.8-.19-2.69-.35-2.9-.5-5.75-1.43-8.32-2.99-2.8-1.88-4.56-5.84-1.91-8.67.61-.64,1.4-1.03,2.22-1.27.39-.08.77-.15,1.17-.14.04,0,.08,0,.12-.01.48-.03.96-.02,1.45.01-3.63-3.21-8.05-6.39-12.93-8.92-.42-.22-.93-.05-1.13.38-.48,1.04-1.29,1.92-2.3,2.65-1.74,1.42-3.83,2.57-6.09,2.39-2.9-.13-4.87-2.43-4.92-5.45.31-3.03,1.44-3.88,1.89-4.51-1.21-.29-2.07-.47-2.96-.61-1.9-.31-3.85-.08-5.63.63-.52.21-1.27.52-2.53,1.06-1.85.86-3.71,1.72-5.45,2.81-1.9,1.15-3.65,2.53-5.5,3.78-1.31.83-2.75,1.53-4.26,1.8-.46.05-.92.11-1.38.14-2.72.35-5.43-1.4-6.78-3.89-1.34-2.75-1.23-6.27.29-8.89.2-.38.44-.74.69-1.08.21-.31.16-.46.66-.85.38-.42.78-.82,1.22-1.18.16-.17.35-.32.55-.45.56-.44,1.13-.86,1.72-1.24.48-.29,1.01-.55,1.54-.77-.1.04-.12.04.04-.02.02,0,.04-.02.06-.03.42-.18.85-.35,1.29-.5.1-.07.33-.17.63-.28.93-.34,1.91-.54,2.9-.6.45-.03.9-.06,1.35-.08,1.05-.05,2.1-.06,3.15-.06-1.43-1.18-2.74-2.53-3.58-4.23-.72-1.54-.73-3.36.08-4.85.53-.84,1.37-1.72,2.31-2.02.79-.37,1.66-.4,2.51-.3-.05,0-.1-.02-.15-.03.05,0,.1.02.15.03.29.04.58.09.86.15-.02,0-.04,0-.06-.01.15.03.31.06.46.11.97.33,1.91.79,2.72,1.45.8.58,1.54,1.25,2.26,1.94.05.05.05.04,0,0,0,0,0,0,.01.01.44.39.87.77,1.29,1.18.14.14.23.22.27.26,3.19,2.79,3.68,3.46,7.09,6.11.12.09.23.19.34.29-.07-.06-.14-.12-.2-.18.14.12.28.24.42.36.23.17.71.58,1.07.89,0,0,0,0-.02-.01.19.17.39.33.58.49,0,0,.02,0,.03.01.57.11,1.15.23,1.72.36,4.54.92,8.92,2.54,13.1,4.65,1.44.66,2.84,1.4,4.22,2.19-.39-1.28-.6-2.61-.52-3.98.13-2.68,2.32-4.91,4.91-4.41,1.75.22,3.19,1.54,4.24,2.97.86,1.22,1.66,2.49,2.18,3.91.66,1.63,1.13,3.36,1.55,5.08.33,1.4.76,2.79.8,4.25,0,0,0,.02,0,.02.03.38.02.76-.02,1.13-.06.51.13,1.02.5,1.37h0c4.27,4.06,8.2,8.49,11.81,13.2-.48-2.7-.55-5.41.72-7.88,1.08-1.96,3.25-3.07,5.35-2.44.15.03.29.09.43.15.28.1.54.23.79.39,0,0,0,0,0,0,0,0,0,0,0,0,.51.33.97.76,1.43,1.17,2.55,2.96,3.23,7.09,3.92,10.89.57,3.32.98,6.67,1.26,10.03.06.68.12,1.36.17,2.03,0-.02,0-.04,0-.05,0,.04,0,.08.01.12.02.43,0,.86-.05,1.29.02-.09.03-.15.03-.16,0,1.15-.53,2.14-1.26,2.95h0c-.43.58.16,1.79.6,2.91.19.38.25.63.48,1.05,4.54,9.12,8.38,18.68,11.05,28.6,13.95-13.13,22.67-31.76,22.67-52.44C144,32.24,111.76,0,72,0S0,32.24,0,72s32.24,72,72,72c15.95,0,30.69-5.19,42.62-13.97-.72-2.73-1.49-5.45-2.33-8.14Z"/>
    </g>
</svg>
